<?xml version="1.0" encoding="UTF-8"?>
<svg id="Layer_2" xmlns="http://www.w3.org/2000/svg" viewBox="0 0 757.22 252.19">
  <defs>
    <style>
      .cls-1 {
        fill: #9409ce;
      }

      .cls-2 {
        fill: #fd6100;
      }

      .cls-3 {
        fill: #3943b7;
      }

      .cls-4 {
        fill: #0cf574;
      }

      .cls-5 {
        fill: #e50586;
      }
    </style>
  </defs>
  <g id="Layer_1-2" data-name="Layer_1">
    <g>
      <ellipse class="cls-1" cx="449.11" cy="246.63" rx="23.59" ry="5.56"/>
      <path class="cls-3" d="M40.87,63.52H0v-29.74h112.84v29.74h-40.87v157.57h-31.11V63.52Z"/>
      <path class="cls-3" d="M129.19,34h31.11v76.06h70.39V34h31.33v187.09h-31.33v-81.51h-70.39v81.51h-31.11V34Z"/>
      <path class="cls-3" d="M290.18,34h41.32c58.81,0,80.38,34.28,80.38,71.52,0,23.61-9.08,46.09-29.52,59.26l31.33,56.31h-37.24l-21.8-45.64c-5.9.91-12.26,1.59-19.3,1.59h-14.08v44.28h-31.11V34ZM336.27,146.85c29.52,0,45.18-16.8,45.18-41.32s-16.12-41.1-45.18-41.1h-14.99v82.42h14.99Z"/>
      <path class="cls-5" d="M433.45,34.23h31.33v186.86l-13.92,24.42c-.85,1.5-3.02,1.49-3.85-.02l-13.56-24.4V34.23Z"/>
      <path class="cls-3" d="M476.36,34.23h33.15l50.63,141.91,49.04-141.91h32.92l-65.16,186.86h-33.83l-66.75-186.86Z"/>
      <path class="cls-3" d="M654.82,34.23h102.4v29.52h-71.29v47.91h65.39v27.47h-65.39v52.22h71.29v29.74h-102.4V34.23Z"/>
      <rect class="cls-2" x="433.45" y="22.61" width="31.38" height="8.49"/>
      <path class="cls-4" d="M464.83,19.48h-31.38V5.34c0-2.95,2.39-5.34,5.34-5.34h20.7c2.95,0,5.34,2.39,5.34,5.34v14.13Z"/>
    </g>
  </g>
</svg>