<?xml version="1.0" encoding="UTF-8"?>
<svg id="Layer_2" xmlns="http://www.w3.org/2000/svg" viewBox="0 0 103.85 177.02">
  <g id="Layer_1-2" data-name="Layer_1">
    <path d="M40.53,177.02c-3.52,0-5.06-1.55-5.06-5.06l.48-75.85H5.06c-3.52,0-5.06-1.55-5.06-5.06v-17.02c0-3.52,1.55-5.06,5.06-5.06h93.72c3.52,0,5.06,1.55,5.06,5.06v17.02c0,3.52-1.55,5.06-5.06,5.06h-29.93l-.48,75.85c0,3.52-1.55,5.06-5.07,5.06h-22.79Z"/>
    <path d="M45.36,39.31h15.01c2.55,0,4.62,2.07,4.62,4.62v15.52c0,2.55-2.07,4.62-4.62,4.62h-15.01c-2.55,0-4.62-2.07-4.62-4.62v-15.52c0-2.55,2.07-4.62,4.62-4.62Z"/>
    <path d="M71.91,58.86c-2.95-1.25-4.13-1.92-4.13-5.13v-3.86c0-3.21,1.27-3.83,4.19-5.15,9.09-4.09,17.08-5.84,27.26-5.42,3.2.13,4.62,1.41,4.62,4.62v14.47c0,3.21-1.41,4.47-4.62,4.62-9.86.47-18.54-.42-27.32-4.16Z" style="fill: #fd6100;"/>
    <path d="M59.14,31.94c-1.25,2.95-1.92,4.13-5.13,4.13h-3.86c-3.21,0-3.83-1.27-5.15-4.19-4.09-9.09-5.84-17.08-5.42-27.26C39.72,1.41,41,0,44.21,0h14.47c3.21,0,4.47,1.41,4.62,4.62.47,9.86-.42,18.54-4.16,27.32Z" style="fill: #9409ce;"/>
    <path d="M73.34,40.47c-3.01,1.11-4.33,1.42-6.52-.92l-2.64-2.81c-2.19-2.34-1.7-3.66-.47-6.62,3.83-9.2,8.46-15.95,16.17-22.61,2.43-2.1,4.33-2.13,6.53.21l9.9,10.55c2.19,2.34,2.03,4.22-.21,6.53-6.87,7.09-13.81,12.38-22.77,15.67Z" style="fill: #3943b7;"/>
    <path d="M31.94,58.86c2.95-1.25,4.13-1.92,4.13-5.13v-3.86c0-3.21-1.27-3.83-4.19-5.15-9.09-4.09-17.08-5.84-27.26-5.42C1.41,39.44,0,40.72,0,43.93v14.47c0,3.21,1.41,4.47,4.62,4.62,9.86.47,18.54-.42,27.32-4.16Z" style="fill: #e50586;"/>
    <path d="M30.51,40.47c3.01,1.11,4.33,1.42,6.52-.92l2.64-2.81c2.19-2.34,1.7-3.66.47-6.62-3.83-9.2-8.46-15.95-16.17-22.61-2.43-2.1-4.33-2.13-6.53.21l-9.9,10.55c-2.19,2.34-2.03,4.22.21,6.53,6.87,7.09,13.81,12.38,22.77,15.67Z" style="fill: #0cf574;"/>
  </g>
</svg>