<?xml version="1.0" encoding="UTF-8"?>
<svg id="Layer_2" xmlns="http://www.w3.org/2000/svg" viewBox="0 0 526.74 178.01">
  <g id="Layer_1-2" data-name="Layer_1">
    <path d="M119.34,177.3c-3.52,0-5.06-1.55-5.06-5.06V14.4c0-3.52,1.55-5.06,5.06-5.06h21.81c3.52,0,5.07,1.55,5.07,5.06v54.55h23.49V14.4c0-3.52,1.55-5.06,5.07-5.06h21.81c3.52,0,5.06,1.55,5.06,5.06v157.83c0,3.52-1.55,5.06-5.06,5.06h-21.81c-3.52,0-5.07-1.55-5.07-5.06v-73.88h-23.49v73.88c0,3.52-1.55,5.06-5.07,5.06h-21.81Z"/>
    <path d="M212.15,177.3c-3.52,0-5.07-1.55-5.07-5.06V44.31c0-3.52,1.55-5.06,5.07-5.06h46.85c21.1,0,27.72,9.57,27.72,23.49v6.47c0,7.88-1.97,13.51-7.88,16.04,10.27,1.13,17.02,8.58,17.02,20.4v66.58c0,3.52-1.55,5.06-5.07,5.06h-21.8c-3.52,0-5.07-1.55-5.07-5.06v-58.28c0-4.22-1.41-6.05-5.35-6.05h-19.7v64.33c0,3.52-1.55,5.06-5.06,5.06h-21.67ZM238.88,82.58h10.55c4.92,0,6.19-2.81,6.19-6.61v-4.78c0-3.8-1.27-6.61-6.19-6.61h-10.55v18.01Z"/>
    <path d="M383.04,177.89c-3.66,0-5.77-1.13-7.17-4.64l-13.79-34.47c-3.38-8.44-4.5-11.11-4.5-19.98V43.72c0-3.52,1.55-5.06,5.07-5.06h22.37c3.52,0,5.49,1.55,5.49,5.06v76.77c0,1.97.42,3.66,1.13,5.77l6.61,19.7c.56,1.83,1.13,2.39,2.67,2.39h1.55c1.55,0,2.11-.56,2.67-2.39l6.61-19.84c.7-2.11,1.13-3.8,1.13-5.77V15.4c0-3.52,1.55-5.06,5.06-5.06h22.09c3.66,0,5.06,1.55,5.06,5.06v103.4c0,8.86-1.13,11.54-4.5,19.98l-13.79,34.47c-1.41,3.52-3.52,4.64-7.18,4.64h-36.58Z"/>
    <path d="M456.4,178.01c-3.52,0-5.07-1.55-5.07-5.06V15.4c0-3.52,1.55-5.06,5.07-5.06h65.28c3.52,0,5.06,1.55,5.06,5.06v16.46c0,3.52-1.55,5.06-5.06,5.06h-38.83v45.92h27.43c3.52,0,5.07,1.55,5.07,5.06v15.05c0,3.52-1.55,5.06-5.07,5.06h-27.43v43.4h38.83c3.52,0,5.06,1.55,5.06,5.07v16.46c0,3.52-1.55,5.06-5.06,5.06h-65.28Z"/>
    <path d="M40.53,177.02c-3.52,0-5.06-1.55-5.06-5.06l.48-75.85H5.06c-3.52,0-5.06-1.55-5.06-5.06v-17.02c0-3.52,1.55-5.06,5.06-5.06h93.72c3.52,0,5.06,1.55,5.06,5.06v17.02c0,3.52-1.55,5.06-5.06,5.06h-29.93l-.48,75.85c0,3.52-1.55,5.06-5.07,5.06h-22.79Z"/>
    <path d="M300.47,173.39v-15.27c0-3.21,1.41-4.62,4.62-4.62h13.44V34.1h-13.44c-3.21,0-4.62-1.41-4.62-4.62v-14.08c0-3.21,1.41-5.06,4.62-5.06h98.75c3.21,0,4.62,1.86,4.62,5.06v14.08c0,3.21-1.41,4.62-4.62,4.62h-55.8v119.41h12.44c3.21,0,4.62,1.41,4.62,4.62v15.27c0,3.21-1.41,4.62-4.62,4.62h-55.39c-3.21,0-4.62-1.41-4.62-4.62Z"/>
    <path d="M211.7,9.34h79.54c2.55,0,4.62,2.07,4.62,4.62v15.52c0,2.55-2.07,4.62-4.62,4.62h-79.54c-2.55,0-4.62-2.07-4.62-4.62v-15.52c0-2.55,2.07-4.62,4.62-4.62Z"/>
    <path d="M45.36,39.31h15.01c2.55,0,4.62,2.07,4.62,4.62v15.52c0,2.55-2.07,4.62-4.62,4.62h-15.01c-2.55,0-4.62-2.07-4.62-4.62v-15.52c0-2.55,2.07-4.62,4.62-4.62Z"/>
    <path d="M71.91,58.86c-2.95-1.25-4.13-1.92-4.13-5.13v-3.86c0-3.21,1.27-3.83,4.19-5.15,9.09-4.09,17.08-5.84,27.26-5.42,3.2.13,4.62,1.41,4.62,4.62v14.47c0,3.21-1.41,4.47-4.62,4.62-9.86.47-18.54-.42-27.32-4.16Z" style="fill: #fd6100;"/>
    <path d="M59.14,31.94c-1.25,2.95-1.92,4.13-5.13,4.13h-3.86c-3.21,0-3.83-1.27-5.15-4.19-4.09-9.09-5.84-17.08-5.42-27.26C39.72,1.41,41,0,44.21,0h14.47c3.21,0,4.47,1.41,4.62,4.62.47,9.86-.42,18.54-4.16,27.32Z" style="fill: #9409ce;"/>
    <path d="M73.34,40.47c-3.01,1.11-4.33,1.42-6.52-.92l-2.64-2.81c-2.19-2.34-1.7-3.66-.47-6.62,3.83-9.2,8.46-15.95,16.17-22.61,2.43-2.1,4.33-2.13,6.53.21l9.9,10.55c2.19,2.34,2.03,4.22-.21,6.53-6.87,7.09-13.81,12.38-22.77,15.67Z" style="fill: #3943b7;"/>
    <path d="M31.94,58.86c2.95-1.25,4.13-1.92,4.13-5.13v-3.86c0-3.21-1.27-3.83-4.19-5.15-9.09-4.09-17.08-5.84-27.26-5.42C1.41,39.44,0,40.72,0,43.93v14.47c0,3.21,1.41,4.47,4.62,4.62,9.86.47,18.54-.42,27.32-4.16Z" style="fill: #e50586;"/>
    <path d="M30.51,40.47c3.01,1.11,4.33,1.42,6.52-.92l2.64-2.81c2.19-2.34,1.7-3.66.47-6.62-3.83-9.2-8.46-15.95-16.17-22.61-2.43-2.1-4.33-2.13-6.53.21l-9.9,10.55c-2.19,2.34-2.03,4.22.21,6.53,6.87,7.09,13.81,12.38,22.77,15.67Z" style="fill: #0cf574;"/>
  </g>
</svg>